<svg width="21" height="21" viewBox="0 0 21 21" fill="none" xmlns="http://www.w3.org/2000/svg">
<path d="M17.3874 4.91873C16.7771 6.41461 15.0697 7.13249 13.5738 6.52216C12.078 5.91183 11.3601 4.20441 11.9704 2.70854C12.5807 1.21266 14.2881 0.494786 15.784 1.10511C17.2799 1.71544 17.9978 3.42286 17.3874 4.91873Z" fill="white"/>
<path d="M19.8949 18.2915C19.2846 19.7874 17.5772 20.5052 16.0813 19.8949C14.5854 19.2846 13.8675 17.5772 14.4779 16.0813C15.0882 14.5854 16.7956 13.8675 18.2915 14.4779C19.7874 15.0882 20.5052 16.7956 19.8949 18.2915Z" fill="white"/>
<path d="M6.52216 13.2767C5.91183 14.7726 4.20441 15.4905 2.70854 14.8802C1.21266 14.2698 0.494786 12.5624 1.10511 11.0666C1.71544 9.57068 3.42286 8.8528 4.91873 9.46313C6.41461 10.0735 7.13249 11.7809 6.52216 13.2767Z" fill="white"/>
<path d="M15.9349 13.2499L15.0931 7.79152L16.7451 7.53672L17.587 12.9951L15.9349 13.2499Z" fill="white"/>
<path d="M6.08811 8.92914L10.691 5.35827L11.7156 6.67901L7.11273 10.2499L6.08811 8.92914Z" fill="white"/>
<path d="M12.8617 17.099L7.07492 14.7379L7.70641 13.1902L13.4932 15.5513L12.8617 17.099Z" fill="white"/>
</svg>
