<svg width="18" height="24" viewBox="0 0 18 24" fill="none" xmlns="http://www.w3.org/2000/svg">
<g clip-path="url(#clip0_105_1809)">
<path d="M6.30496 23.6914C6.48018 23.4082 6.66781 23.2783 6.91348 23.2246C7.02555 23.2002 7.13835 23.1673 7.25188 23.1633C8.07578 23.1333 8.47623 22.6832 8.68905 21.9271C8.99933 20.8261 9.26034 19.7227 9.32677 18.5802C9.34247 18.3092 9.34904 18.0403 9.23259 17.7829C9.19061 17.6902 9.16324 17.5849 9.19864 17.4854C9.43921 16.8101 9.25267 16.1517 9.12454 15.4905C9.06723 15.1951 8.8639 15.0261 8.59669 14.9144C8.58683 14.9101 8.57369 14.904 8.57041 14.8954C8.37694 14.4078 7.81587 14.4203 7.48842 14.1074C7.41943 14.2073 7.56216 14.2821 7.47127 14.3888C7.28984 14.2674 7.10476 14.1436 6.90764 14.0114C6.8642 14.0984 7.01277 14.1453 6.9467 14.2123C6.90071 14.2588 6.83719 14.2298 6.78827 14.2034C6.60867 14.106 6.4309 14.0046 6.24838 13.9022C6.19362 13.9982 6.34949 14.048 6.28963 14.1708C5.94831 14.1178 5.73294 13.7168 5.33176 13.8432C5.3292 13.8611 5.45441 13.8972 5.40075 13.9635C5.34782 14.0286 5.27591 13.9728 5.2164 13.9445C4.89261 13.7902 4.63307 13.5517 4.37535 13.3054C4.25598 13.43 4.43777 13.5453 4.32826 13.7114C3.77522 13.178 2.90678 13.0519 2.5819 12.236C2.49392 12.3609 2.64067 12.4709 2.5443 12.5715C2.51801 12.5611 2.4764 12.5579 2.46143 12.5367C2.00659 11.8951 1.35207 11.3535 1.36083 10.4602C1.34002 10.5103 1.33309 10.5833 1.29512 10.6055C1.22321 10.6478 1.20496 10.573 1.18488 10.5218C1.18087 10.5114 1.17722 10.4999 1.17685 10.4888C1.15896 9.76381 0.934827 9.0653 1.01842 8.31344C1.06916 7.85732 1.17247 7.43055 1.28527 6.99734C1.4207 6.47605 1.4886 5.94903 1.82042 5.46999C2.00184 5.20792 2.17816 4.88247 2.2508 4.52301C2.31907 4.18432 2.50086 3.87247 2.56656 3.51409C2.70346 2.76438 2.44866 2.38773 1.67878 2.28677C1.39186 2.24918 1.1126 2.22555 0.826045 2.26422C0.695725 2.28176 0.560294 2.25885 0.512474 2.11671C0.461733 1.96562 0.585482 1.8976 0.691709 1.82778C0.853788 1.72109 1.01039 1.6058 1.17722 1.50735C1.34951 1.40567 1.44552 1.26747 1.43457 1.06984C1.42581 0.90586 1.51524 0.812057 1.63023 0.703575C2.03287 0.32335 2.53335 0.130015 3.05682 0.023681C3.5467 -0.0758506 3.8924 0.142546 4.14282 0.600105C4.34103 0.962429 4.64329 1.35089 4.57722 1.7372C4.4155 2.68096 4.37024 3.64763 3.95044 4.55201C3.65986 5.17748 3.50728 5.85988 3.51129 6.58202C3.51348 6.97478 3.66096 7.31634 3.69162 7.69048C3.71864 8.01736 4.19757 8.32777 4.53925 8.32956C5.0149 8.3317 5.38432 8.1176 5.79244 7.90028C6.0706 7.75206 6.26371 7.39976 6.65357 7.44308C6.70395 7.44881 6.76418 7.37147 6.81894 7.33173C7.43878 6.88277 8.13382 6.61174 8.88836 6.46817C9.14279 6.41984 9.40124 6.34071 9.63815 6.26195C10.0952 6.10979 10.5453 6.16134 10.9855 6.18855C11.7306 6.23438 12.4727 6.41626 13.152 6.70017C13.5795 6.87883 14.0909 7.10081 14.3567 7.45812C14.6995 7.91926 15.1981 8.17274 15.558 8.58626C15.5891 8.62206 15.6657 8.66753 15.5723 8.70942C15.5405 8.72374 15.4865 8.69045 15.4025 8.66861C15.4982 8.77279 15.5635 8.86051 15.6449 8.92997C16.1724 9.38001 16.4363 10.013 16.6933 10.6048C16.8755 11.0244 17.1438 11.4283 17.2252 11.8926C17.1354 11.9521 17.1211 11.83 17.046 11.8271C17.0554 11.864 17.0591 11.8951 17.0715 11.9224C17.2496 12.314 17.5344 12.7276 17.4661 13.1282C17.3898 13.5786 17.5431 13.9932 17.4887 14.4228C17.4511 14.7207 17.357 14.4368 17.2851 14.4429C17.2642 14.6401 17.2456 14.8392 17.2212 15.0372C17.2073 15.1482 17.2026 15.15 17.0474 15.1518C17.0317 15.1518 17.0189 15.1267 17.0146 15.1557C17.0113 15.1779 17.0135 15.2008 17.0109 15.223C16.9901 15.4038 16.9364 15.5757 16.8572 15.7396C16.8339 15.788 16.8065 15.8614 16.7452 15.8456C16.6594 15.8238 16.7123 15.7268 16.6791 15.667C16.6302 15.7765 16.5922 15.8904 16.5316 15.991C16.3929 16.2205 16.1206 16.2817 15.9253 16.0898C15.6814 15.8503 15.3065 15.9376 15.0539 15.6677C14.874 15.4754 14.6732 15.4167 14.5096 15.2642C14.4304 15.1908 14.2395 15.1056 14.1793 15.1149C13.9343 15.1525 13.7222 14.89 13.4762 15.0576C13.4466 15.0777 13.3849 15.0662 13.343 15.0537C13.155 14.9967 12.9261 14.9821 12.7801 14.928C12.5019 14.8249 12.2077 14.8858 11.9478 14.7583C11.7996 14.6856 11.6616 14.8353 11.6514 15.0014C11.6247 15.4257 11.8266 15.7633 12.0577 16.0837C12.3055 16.4278 12.4227 16.7489 12.3979 17.2136C12.3015 18.9981 12.457 20.7699 12.9619 22.5003C13.1214 23.0466 12.8691 23.3352 12.3187 23.4004C11.7298 23.4698 11.1542 23.3799 10.5727 23.3699C10.3792 23.3667 10.2277 23.2006 9.98896 23.2872C10.097 22.9754 10.3135 22.8959 10.5581 22.8748C10.8691 22.8476 11.1659 22.7613 11.4685 22.6983C11.8237 22.6241 11.9547 22.4108 11.9595 22.071C11.97 21.2905 11.8857 20.5186 11.7722 19.7485C11.7178 19.3808 11.6652 19.0124 11.5893 18.6486C11.5123 18.2802 11.4634 17.9125 11.164 17.6075C10.9421 17.3812 10.995 16.9856 10.7504 16.7196C10.9275 17.2799 10.5829 17.7127 10.3931 18.1732C9.72942 19.7825 9.37642 21.4437 9.42607 23.1837C9.43957 23.6499 9.40526 23.6864 8.93143 23.7953C8.61859 23.8672 8.30356 23.9327 7.98707 23.9875C7.85055 24.0111 7.68263 24.029 7.75965 23.7928C7.82682 23.5869 7.65488 23.6614 7.58114 23.6624C7.18142 23.6685 6.7817 23.6245 6.30569 23.6918L6.30496 23.6914Z" fill="black"/>
</g>
<defs>
<clipPath id="clip0_105_1809">
<rect width="17" height="24" fill="white" transform="translate(0.5)"/>
</clipPath>
</defs>
</svg>
