<svg width="20" height="20" viewBox="0 0 20 20" fill="none" xmlns="http://www.w3.org/2000/svg">
<g id="place">
<path id="Vector" d="M9.99992 10.0001C9.08325 10.0001 8.33325 9.25008 8.33325 8.33342C8.33325 7.41675 9.08325 6.66675 9.99992 6.66675C10.9166 6.66675 11.6666 7.41675 11.6666 8.33342C11.6666 9.25008 10.9166 10.0001 9.99992 10.0001ZM14.9999 8.50008C14.9999 5.47508 12.7916 3.33341 9.99992 3.33341C7.20825 3.33341 4.99992 5.47508 4.99992 8.50008C4.99992 10.4501 6.62492 13.0334 9.99992 16.1167C13.3749 13.0334 14.9999 10.4501 14.9999 8.50008ZM9.99992 1.66675C13.4999 1.66675 16.6666 4.35008 16.6666 8.50008C16.6666 11.2667 14.4416 14.5417 9.99992 18.3334C5.55825 14.5417 3.33325 11.2667 3.33325 8.50008C3.33325 4.35008 6.49992 1.66675 9.99992 1.66675Z" fill="white" fill-opacity="0.85"/>
</g>
</svg>
