<svg width="18" height="18" viewBox="0 0 18 18" fill="none" xmlns="http://www.w3.org/2000/svg">
<path d="M11.25 6L9.59898 1.44068C9.18575 0.519773 7.86342 0.519773 7.45019 1.44068L5.625 6L1.44068 7.45019C0.519773 7.87523 0.519773 9.18575 1.44068 9.59898L5.625 11.25L7.45019 15.6085C7.87523 16.5294 9.18575 16.5294 9.59898 15.6085L11.25 11.25L15.6085 9.59898C16.5294 9.17394 16.5294 7.86342 15.6085 7.45019L11.25 6Z" fill="white" fill-opacity="0.85"/>
<path d="M15.5184 4.13462L15.9433 3.19333L16.8846 2.7684C17.0944 2.67158 17.0944 2.37575 16.8846 2.27893L15.9433 1.854L15.5184 0.90733C15.4216 0.697557 15.1257 0.697557 15.0289 0.90733L14.604 1.84862L13.6573 2.27355C13.4476 2.37037 13.4476 2.6662 13.6573 2.76302L14.5986 3.18795L15.0235 4.13462C15.1204 4.34439 15.4216 4.34439 15.5184 4.13462Z" fill="white" fill-opacity="0.85"/>
<path d="M2.7684 16.8846L3.19333 15.9433L4.13462 15.5184C4.34439 15.4216 4.34439 15.1257 4.13462 15.0289L3.19333 14.604L2.7684 13.6573C2.67158 13.4476 2.37575 13.4476 2.27893 13.6573L1.854 14.5986L0.90733 15.0236C0.697557 15.1204 0.697557 15.4162 0.90733 15.513L1.84862 15.9379L2.27355 16.8846C2.37037 17.0944 2.67158 17.0944 2.7684 16.8846Z" fill="white" fill-opacity="0.85"/>
</svg>
